<svg id="visual" viewBox="0 0 960 300" width="960" height="300" xmlns="http://www.w3.org/2000/svg" xmlns:xlink="http://www.w3.org/1999/xlink" version="1.1"><rect x="0" y="0" width="960" height="300" fill="#002233"></rect><path d="M0 78L22.8 80.2C45.7 82.3 91.3 86.7 137 87.7C182.7 88.7 228.3 86.3 274 89.3C319.7 92.3 365.3 100.7 411.2 99.2C457 97.7 503 86.3 548.8 87.7C594.7 89 640.3 103 686 106.8C731.7 110.7 777.3 104.3 823 104.8C868.7 105.3 914.3 112.7 937.2 116.3L960 120L960 0L937.2 0C914.3 0 868.7 0 823 0C777.3 0 731.7 0 686 0C640.3 0 594.7 0 548.8 0C503 0 457 0 411.2 0C365.3 0 319.7 0 274 0C228.3 0 182.7 0 137 0C91.3 0 45.7 0 22.8 0L0 0Z" fill="#002233"></path><path d="M0 94L22.8 90C45.7 86 91.3 78 137 78.8C182.7 79.7 228.3 89.3 274 91.3C319.7 93.3 365.3 87.7 411.2 85.5C457 83.3 503 84.7 548.8 83.8C594.7 83 640.3 80 686 76.8C731.7 73.7 777.3 70.3 823 72.2C868.7 74 914.3 81 937.2 84.5L960 88L960 0L937.2 0C914.3 0 868.7 0 823 0C777.3 0 731.7 0 686 0C640.3 0 594.7 0 548.8 0C503 0 457 0 411.2 0C365.3 0 319.7 0 274 0C228.3 0 182.7 0 137 0C91.3 0 45.7 0 22.8 0L0 0Z" fill="#003865"></path><path d="M0 68L22.8 68.8C45.7 69.7 91.3 71.3 137 72.3C182.7 73.3 228.3 73.7 274 73.8C319.7 74 365.3 74 411.2 69.8C457 65.7 503 57.3 548.8 55.5C594.7 53.7 640.3 58.3 686 57.8C731.7 57.3 777.3 51.7 823 49.5C868.7 47.3 914.3 48.7 937.2 49.3L960 50L960 0L937.2 0C914.3 0 868.7 0 823 0C777.3 0 731.7 0 686 0C640.3 0 594.7 0 548.8 0C503 0 457 0 411.2 0C365.3 0 319.7 0 274 0C228.3 0 182.7 0 137 0C91.3 0 45.7 0 22.8 0L0 0Z" fill="#004b99"></path><path d="M0 45L22.8 46.2C45.7 47.3 91.3 49.7 137 51.7C182.7 53.7 228.3 55.3 274 51.8C319.7 48.3 365.3 39.7 411.2 35.7C457 31.7 503 32.3 548.8 32.3C594.7 32.3 640.3 31.7 686 35.5C731.7 39.3 777.3 47.7 823 48.7C868.7 49.7 914.3 43.3 937.2 40.2L960 37L960 0L937.2 0C914.3 0 868.7 0 823 0C777.3 0 731.7 0 686 0C640.3 0 594.7 0 548.8 0C503 0 457 0 411.2 0C365.3 0 319.7 0 274 0C228.3 0 182.7 0 137 0C91.3 0 45.7 0 22.8 0L0 0Z" fill="#005acc"></path><path d="M0 30L22.8 30C45.7 30 91.3 30 137 28.7C182.7 27.3 228.3 24.7 274 25.3C319.7 26 365.3 30 411.2 31.5C457 33 503 32 548.8 30.5C594.7 29 640.3 27 686 26C731.7 25 777.3 25 823 25.3C868.7 25.7 914.3 26.3 937.2 26.7L960 27L960 0L937.2 0C914.3 0 868.7 0 823 0C777.3 0 731.7 0 686 0C640.3 0 594.7 0 548.8 0C503 0 457 0 411.2 0C365.3 0 319.7 0 274 0C228.3 0 182.7 0 137 0C91.3 0 45.7 0 22.8 0L0 0Z" fill="#0066ff"></path></svg>