<svg id="visual" viewBox="0 0 960 300" width="960" height="300" xmlns="http://www.w3.org/2000/svg" xmlns:xlink="http://www.w3.org/1999/xlink" version="1.1"><rect x="0" y="0" width="960" height="300" fill="#002233"></rect><path d="M0 80L22.8 82.5C45.7 85 91.3 90 137 86.2C182.7 82.3 228.3 69.7 274 69C319.7 68.3 365.3 79.7 411.2 86.8C457 94 503 97 548.8 94.7C594.7 92.3 640.3 84.7 686 84.8C731.7 85 777.3 93 823 92.3C868.7 91.7 914.3 82.3 937.2 77.7L960 73L960 0L937.2 0C914.3 0 868.7 0 823 0C777.3 0 731.7 0 686 0C640.3 0 594.7 0 548.8 0C503 0 457 0 411.2 0C365.3 0 319.7 0 274 0C228.3 0 182.7 0 137 0C91.3 0 45.7 0 22.8 0L0 0Z" fill="#0066FF" stroke-linecap="round" stroke-linejoin="miter"></path></svg>