<svg id="visual" viewBox="0 0 960 540" width="960" height="540" xmlns="http://www.w3.org/2000/svg" xmlns:xlink="http://www.w3.org/1999/xlink" version="1.1"><rect x="0" y="0" width="960" height="540" fill="#002233"></rect><path d="M0 171L22.8 174.7C45.7 178.3 91.3 185.7 137 184.8C182.7 184 228.3 175 274 168.5C319.7 162 365.3 158 411.2 145.7C457 133.3 503 112.7 548.8 113.5C594.7 114.3 640.3 136.7 686 140.8C731.7 145 777.3 131 823 136C868.7 141 914.3 165 937.2 177L960 189L960 0L937.2 0C914.3 0 868.7 0 823 0C777.3 0 731.7 0 686 0C640.3 0 594.7 0 548.8 0C503 0 457 0 411.2 0C365.3 0 319.7 0 274 0C228.3 0 182.7 0 137 0C91.3 0 45.7 0 22.8 0L0 0Z" fill="#0066FF" stroke-linecap="round" stroke-linejoin="miter"></path></svg>