<svg id="visual" viewBox="0 0 960 540" width="960" height="540" xmlns="http://www.w3.org/2000/svg" xmlns:xlink="http://www.w3.org/1999/xlink" version="1.1"><rect x="0" y="0" width="960" height="540" fill="#002233"></rect><path d="M0 419L22.8 422.5C45.7 426 91.3 433 137 421.3C182.7 409.7 228.3 379.3 274 378.2C319.7 377 365.3 405 411.2 408.8C457 412.7 503 392.3 548.8 384.8C594.7 377.3 640.3 382.7 686 380.2C731.7 377.7 777.3 367.3 823 378.2C868.7 389 914.3 421 937.2 437L960 453L960 541L937.2 541C914.3 541 868.7 541 823 541C777.3 541 731.7 541 686 541C640.3 541 594.7 541 548.8 541C503 541 457 541 411.2 541C365.3 541 319.7 541 274 541C228.3 541 182.7 541 137 541C91.3 541 45.7 541 22.8 541L0 541Z" fill="#0066FF" stroke-linecap="round" stroke-linejoin="miter"></path></svg>